<svg xmlns="http://www.w3.org/2000/svg" xmlns:xlink="http://www.w3.org/1999/xlink" width="1600" zoomAndPan="magnify" viewBox="0 0 1200 749.999995" height="1000" preserveAspectRatio="xMidYMid meet" version="1.0"><defs><g/><clipPath id="id1"><path d="M 231 234 L 460 234 L 460 481 L 231 481 Z M 231 234 " clip-rule="nonzero"/></clipPath><clipPath id="id2"><path d="M 221.402344 244.984375 L 444.703125 227.332031 L 464.078125 472.460938 L 240.777344 490.109375 Z M 221.402344 244.984375 " clip-rule="nonzero"/></clipPath><clipPath id="id3"><path d="M 221.402344 244.984375 L 444.703125 227.332031 L 464.078125 472.460938 L 240.777344 490.109375 Z M 221.402344 244.984375 " clip-rule="nonzero"/></clipPath><clipPath id="id4"><path d="M 221.863281 244.945312 L 445.09375 227.300781 L 464.46875 472.429688 L 241.238281 490.074219 Z M 221.863281 244.945312 " clip-rule="nonzero"/></clipPath><clipPath id="id5"><path d="M 221.863281 244.945312 L 444.308594 227.363281 L 463.683594 472.492188 L 241.238281 490.074219 Z M 221.863281 244.945312 " clip-rule="nonzero"/></clipPath><clipPath id="id6"><path d="M 362 278 L 376 278 L 376 292 L 362 292 Z M 362 278 " clip-rule="nonzero"/></clipPath><clipPath id="id7"><path d="M 221.402344 244.984375 L 444.703125 227.332031 L 464.078125 472.460938 L 240.777344 490.109375 Z M 221.402344 244.984375 " clip-rule="nonzero"/></clipPath><clipPath id="id8"><path d="M 221.402344 244.984375 L 444.703125 227.332031 L 464.078125 472.460938 L 240.777344 490.109375 Z M 221.402344 244.984375 " clip-rule="nonzero"/></clipPath><clipPath id="id9"><path d="M 200 231 L 429 231 L 429 478 L 200 478 Z M 200 231 " clip-rule="nonzero"/></clipPath><clipPath id="id10"><path d="M 190.628906 241.902344 L 413.925781 224.253906 L 433.300781 469.378906 L 210.003906 487.027344 Z M 190.628906 241.902344 " clip-rule="nonzero"/></clipPath><clipPath id="id11"><path d="M 190.628906 241.902344 L 413.925781 224.253906 L 433.300781 469.378906 L 210.003906 487.027344 Z M 190.628906 241.902344 " clip-rule="nonzero"/></clipPath><clipPath id="id12"><path d="M 191.089844 241.867188 L 414.320312 224.222656 L 433.695312 469.347656 L 210.464844 486.992188 Z M 191.089844 241.867188 " clip-rule="nonzero"/></clipPath><clipPath id="id13"><path d="M 191.089844 241.867188 L 413.535156 224.28125 L 432.910156 469.410156 L 210.464844 486.992188 Z M 191.089844 241.867188 " clip-rule="nonzero"/></clipPath><clipPath id="id14"><path d="M 331 275 L 345 275 L 345 289 L 331 289 Z M 331 275 " clip-rule="nonzero"/></clipPath><clipPath id="id15"><path d="M 190.628906 241.902344 L 413.925781 224.253906 L 433.300781 469.378906 L 210.003906 487.027344 Z M 190.628906 241.902344 " clip-rule="nonzero"/></clipPath><clipPath id="id16"><path d="M 190.628906 241.902344 L 413.925781 224.253906 L 433.300781 469.378906 L 210.003906 487.027344 Z M 190.628906 241.902344 " clip-rule="nonzero"/></clipPath></defs><g fill="#e89e30" fill-opacity="1"><g transform="translate(450.027407, 459.321028)"><g><path d="M 149.78125 -101.972656 C 144.574219 -71.664062 133.417969 -51.941406 119.039062 -49.441406 C 113.507812 -48.476562 109.464844 -50.738281 108.347656 -57.152344 C 107.808594 -60.25 107.859375 -63.90625 108.636719 -68.597656 L 128.402344 -194.667969 C 128.789062 -197.699219 128.808594 -200.210938 128.382812 -202.644531 C 126.574219 -213.039062 117.453125 -218.292969 108.824219 -216.789062 C 101.523438 -215.519531 94.589844 -209.523438 92.574219 -197.550781 C 89.246094 -177.367188 85.460938 -149.355469 82.359375 -129.214844 L 44.085938 -122.550781 L 53.445312 -181.394531 C 53.972656 -184.902344 53.914062 -187.855469 53.414062 -190.734375 C 51.644531 -200.910156 43.339844 -205.390625 35.378906 -204.003906 C 27.632812 -202.65625 19.929688 -195.84375 18.613281 -183.765625 L 7.359375 -116.160156 L -2.375 -114.464844 C -15.867188 -112.117188 -20.167969 -104.074219 -18.933594 -96.996094 C -17.742188 -90.136719 -11.238281 -84.203125 -2.832031 -85.667969 L 2.476562 -86.589844 L -7.871094 -21.652344 C -8.332031 -19.0625 -8.351562 -16.554688 -8.003906 -14.5625 C -6.347656 -5.050781 3.097656 -0.539062 11.945312 -2.078125 C 19.246094 -3.351562 26.257812 -8.902344 27.621094 -19.394531 C 30.9375 -40.941406 35.886719 -71.4375 39.203125 -92.984375 C 53.140625 -95.410156 64.605469 -97.632812 77.878906 -99.941406 C 75.792969 -87.042969 74.476562 -80.203125 72.496094 -68.007812 C 71.691406 -62.167969 71.769531 -56.484375 72.652344 -51.394531 C 76.734375 -27.945312 98.226562 -17.097656 121.234375 -21.101562 C 154.417969 -26.878906 171.429688 -58.789062 177.667969 -100.21875 C 177.878906 -101.621094 177.859375 -104.355469 177.667969 -105.460938 C 176.472656 -112.316406 169.179688 -114.925781 162.324219 -113.730469 C 156.128906 -112.652344 150.433594 -108.699219 149.78125 -101.972656 Z M 149.78125 -101.972656 "/></g></g></g><g fill="#e89e30" fill-opacity="1"><g transform="translate(602.01281, 432.865475)"><g><path d="M 133.699219 -94.84375 C 131.402344 -80.539062 122.140625 -69.582031 109.019531 -66.386719 C 109.089844 -67.3125 109.195312 -68.011719 109.484375 -68.976562 L 123.542969 -157.125 C 124.386719 -162.742188 124.425781 -167.765625 123.539062 -172.851562 C 118.957031 -199.179688 90.90625 -213.671875 62.144531 -208.664062 C 40.6875 -204.929688 15.6875 -190.09375 10.105469 -155.386719 L -4.308594 -65.351562 C -5.367188 -58.328125 -5.683594 -50.980469 -4.605469 -44.785156 C 0.363281 -16.246094 26.988281 -4.699219 53.757812 -9.359375 C 70.351562 -12.246094 87.019531 -19.933594 98.328125 -38.769531 C 102.425781 -38.800781 106.96875 -38.90625 111.613281 -39.714844 C 138.824219 -44.449219 159.078125 -66.894531 160.929688 -91.605469 C 161.027344 -93.675781 160.941406 -95.484375 160.671875 -97.03125 C 159.207031 -105.4375 152.320312 -108.34375 145.902344 -107.226562 C 139.929688 -106.1875 134.3125 -101.789062 133.699219 -94.84375 Z M 50.011719 -37.425781 C 40.277344 -35.730469 31.378906 -41.019531 29.6875 -50.753906 C 29.300781 -52.964844 29.242188 -55.917969 29.847656 -58.988281 L 45.4375 -155.382812 C 47.945312 -171.089844 58.148438 -179.25 67.660156 -180.90625 C 77.617188 -182.636719 86.773438 -177.164062 88.429688 -167.652344 C 88.816406 -165.441406 88.757812 -163.152344 88.335938 -160.34375 L 77.21875 -89.34375 C 75.332031 -89.699219 72.339844 -89.863281 70.128906 -89.476562 C 59.289062 -87.589844 52.160156 -77.460938 54.011719 -66.839844 C 55.164062 -60.203125 59.03125 -56.316406 67.277344 -49.546875 C 62.96875 -42.871094 56.871094 -38.617188 50.011719 -37.425781 Z M 50.011719 -37.425781 "/></g></g></g><g fill="#e89e30" fill-opacity="1"><g transform="translate(738.290853, 409.144046)"><g><path d="M 102.367188 -62.722656 L 125.34375 -193.910156 C 125.910156 -197.199219 125.816406 -200.371094 125.390625 -202.804688 C 123.542969 -213.425781 114.578125 -217.789062 105.949219 -216.289062 C 97.765625 -214.863281 90.320312 -207.871094 88.300781 -195.894531 L 66.917969 -73.875 C 63.542969 -55.28125 50.667969 -38.90625 38.71875 -36.828125 C 33.632812 -35.941406 30.140625 -38.980469 29.253906 -44.070312 C 28.90625 -46.058594 28.742188 -48.3125 29.207031 -50.898438 L 51.675781 -181.085938 C 52.242188 -184.375 52.183594 -187.328125 51.761719 -189.761719 C 49.910156 -200.378906 40.6875 -204.929688 32.058594 -203.425781 C 23.875 -202.003906 16.429688 -195.007812 14.410156 -183.03125 L -8.183594 -49.632812 C -9.105469 -44.457031 -8.921875 -39.476562 -8.113281 -34.828125 C -4.496094 -14.035156 14.824219 -2.582031 36.722656 -6.390625 C 51.324219 -8.933594 65.65625 -18.265625 74.832031 -31.03125 C 84.238281 -21.5 99.554688 -17.328125 116.367188 -20.253906 C 142.25 -24.761719 171.933594 -45.425781 178.632812 -84.203125 L 200.121094 -206.925781 C 200.6875 -210.214844 200.589844 -213.386719 200.167969 -215.820312 C 198.320312 -226.441406 189.355469 -230.808594 180.726562 -229.304688 C 172.539062 -227.878906 165.097656 -220.886719 163.078125 -208.910156 L 141.78125 -85.082031 C 138.0625 -63.238281 125.453125 -50.558594 114.171875 -48.59375 C 107.753906 -47.476562 103.117188 -50.542969 102.15625 -56.074219 C 101.808594 -58.066406 101.902344 -60.132812 102.367188 -62.722656 Z M 102.367188 -62.722656 "/></g></g></g><g fill="#000000" fill-opacity="1"><g transform="translate(438.548424, 451.245755)"><g><path d="M 149.78125 -101.972656 C 144.574219 -71.664062 133.417969 -51.941406 119.039062 -49.441406 C 113.507812 -48.476562 109.464844 -50.738281 108.347656 -57.152344 C 107.808594 -60.25 107.859375 -63.90625 108.636719 -68.597656 L 128.402344 -194.667969 C 128.789062 -197.699219 128.808594 -200.210938 128.382812 -202.644531 C 126.574219 -213.039062 117.453125 -218.292969 108.824219 -216.789062 C 101.523438 -215.519531 94.589844 -209.523438 92.574219 -197.550781 C 89.246094 -177.367188 85.460938 -149.355469 82.359375 -129.214844 L 44.085938 -122.550781 L 53.445312 -181.394531 C 53.972656 -184.902344 53.914062 -187.855469 53.414062 -190.734375 C 51.644531 -200.910156 43.339844 -205.390625 35.378906 -204.003906 C 27.632812 -202.65625 19.929688 -195.84375 18.613281 -183.765625 L 7.359375 -116.160156 L -2.375 -114.464844 C -15.867188 -112.117188 -20.167969 -104.074219 -18.933594 -96.996094 C -17.742188 -90.136719 -11.238281 -84.203125 -2.832031 -85.667969 L 2.476562 -86.589844 L -7.871094 -21.652344 C -8.332031 -19.0625 -8.351562 -16.554688 -8.003906 -14.5625 C -6.347656 -5.050781 3.097656 -0.539062 11.945312 -2.078125 C 19.246094 -3.351562 26.257812 -8.902344 27.621094 -19.394531 C 30.9375 -40.941406 35.886719 -71.4375 39.203125 -92.984375 C 53.140625 -95.410156 64.605469 -97.632812 77.878906 -99.941406 C 75.792969 -87.042969 74.476562 -80.203125 72.496094 -68.007812 C 71.691406 -62.167969 71.769531 -56.484375 72.652344 -51.394531 C 76.734375 -27.945312 98.226562 -17.097656 121.234375 -21.101562 C 154.417969 -26.878906 171.429688 -58.789062 177.667969 -100.21875 C 177.878906 -101.621094 177.859375 -104.355469 177.667969 -105.460938 C 176.472656 -112.316406 169.179688 -114.925781 162.324219 -113.730469 C 156.128906 -112.652344 150.433594 -108.699219 149.78125 -101.972656 Z M 149.78125 -101.972656 "/></g></g></g><g fill="#000000" fill-opacity="1"><g transform="translate(590.533827, 424.790203)"><g><path d="M 133.699219 -94.84375 C 131.402344 -80.539062 122.140625 -69.582031 109.019531 -66.386719 C 109.089844 -67.3125 109.195312 -68.011719 109.484375 -68.976562 L 123.542969 -157.125 C 124.386719 -162.742188 124.425781 -167.765625 123.539062 -172.851562 C 118.957031 -199.179688 90.90625 -213.671875 62.144531 -208.664062 C 40.6875 -204.929688 15.6875 -190.09375 10.105469 -155.386719 L -4.308594 -65.351562 C -5.367188 -58.328125 -5.683594 -50.980469 -4.605469 -44.785156 C 0.363281 -16.246094 26.988281 -4.699219 53.757812 -9.359375 C 70.351562 -12.246094 87.019531 -19.933594 98.328125 -38.769531 C 102.425781 -38.800781 106.96875 -38.90625 111.613281 -39.714844 C 138.824219 -44.449219 159.078125 -66.894531 160.929688 -91.605469 C 161.027344 -93.675781 160.941406 -95.484375 160.671875 -97.03125 C 159.207031 -105.4375 152.320312 -108.34375 145.902344 -107.226562 C 139.929688 -106.1875 134.3125 -101.789062 133.699219 -94.84375 Z M 50.011719 -37.425781 C 40.277344 -35.730469 31.378906 -41.019531 29.6875 -50.753906 C 29.300781 -52.964844 29.242188 -55.917969 29.847656 -58.988281 L 45.4375 -155.382812 C 47.945312 -171.089844 58.148438 -179.25 67.660156 -180.90625 C 77.617188 -182.636719 86.773438 -177.164062 88.429688 -167.652344 C 88.816406 -165.441406 88.757812 -163.152344 88.335938 -160.34375 L 77.21875 -89.34375 C 75.332031 -89.699219 72.339844 -89.863281 70.128906 -89.476562 C 59.289062 -87.589844 52.160156 -77.460938 54.011719 -66.839844 C 55.164062 -60.203125 59.03125 -56.316406 67.277344 -49.546875 C 62.96875 -42.871094 56.871094 -38.617188 50.011719 -37.425781 Z M 50.011719 -37.425781 "/></g></g></g><g fill="#000000" fill-opacity="1"><g transform="translate(726.811869, 401.068774)"><g><path d="M 102.367188 -62.722656 L 125.34375 -193.910156 C 125.910156 -197.199219 125.816406 -200.371094 125.390625 -202.804688 C 123.542969 -213.425781 114.578125 -217.789062 105.949219 -216.289062 C 97.765625 -214.863281 90.320312 -207.871094 88.300781 -195.894531 L 66.917969 -73.875 C 63.542969 -55.28125 50.667969 -38.90625 38.71875 -36.828125 C 33.632812 -35.941406 30.140625 -38.980469 29.253906 -44.070312 C 28.90625 -46.058594 28.742188 -48.3125 29.207031 -50.898438 L 51.675781 -181.085938 C 52.242188 -184.375 52.183594 -187.328125 51.761719 -189.761719 C 49.910156 -200.378906 40.6875 -204.929688 32.058594 -203.425781 C 23.875 -202.003906 16.429688 -195.007812 14.410156 -183.03125 L -8.183594 -49.632812 C -9.105469 -44.457031 -8.921875 -39.476562 -8.113281 -34.828125 C -4.496094 -14.035156 14.824219 -2.582031 36.722656 -6.390625 C 51.324219 -8.933594 65.65625 -18.265625 74.832031 -31.03125 C 84.238281 -21.5 99.554688 -17.328125 116.367188 -20.253906 C 142.25 -24.761719 171.933594 -45.425781 178.632812 -84.203125 L 200.121094 -206.925781 C 200.6875 -210.214844 200.589844 -213.386719 200.167969 -215.820312 C 198.320312 -226.441406 189.355469 -230.808594 180.726562 -229.304688 C 172.539062 -227.878906 165.097656 -220.886719 163.078125 -208.910156 L 141.78125 -85.082031 C 138.0625 -63.238281 125.453125 -50.558594 114.171875 -48.59375 C 107.753906 -47.476562 103.117188 -50.542969 102.15625 -56.074219 C 101.808594 -58.066406 101.902344 -60.132812 102.367188 -62.722656 Z M 102.367188 -62.722656 "/></g></g></g><g fill="#e89e30" fill-opacity="1"><g transform="translate(513.268487, 641.226784)"><g><path d="M 114.886719 -190.679688 L 17.96875 -176.039062 C 6.636719 -173.921875 2.808594 -166.800781 3.773438 -160.40625 C 4.679688 -154.410156 9.949219 -149.28125 17.144531 -150.367188 L 48.121094 -155.046875 L 23.371094 -22.539062 C 22.875 -20.417969 22.976562 -18.390625 23.21875 -16.792969 C 24.484375 -8.398438 32.574219 -4.921875 40.167969 -6.066406 C 46.960938 -7.09375 53.210938 -11.714844 54.664062 -19.703125 L 81.09375 -160.027344 L 113.664062 -164.945312 C 124.855469 -166.636719 128.625 -174.15625 127.660156 -180.550781 C 126.753906 -186.546875 121.683594 -191.707031 114.886719 -190.679688 Z M 114.886719 -190.679688 "/></g></g></g><g fill="#e89e30" fill-opacity="1"><g transform="translate(632.770076, 623.176558)"><g><path d="M 18.089844 -164.410156 L -8.605469 -21.796875 C -9.152344 -18.648438 -9.160156 -15.988281 -8.769531 -13.390625 C -7.378906 -4.199219 0 0 7.195312 -1.085938 C 14.1875 -2.144531 20.628906 -8.226562 22.683594 -18.960938 L 49.382812 -161.574219 C 49.929688 -164.722656 49.933594 -167.378906 49.542969 -169.976562 C 48.15625 -179.167969 40.773438 -183.371094 33.582031 -182.28125 C 26.585938 -181.226562 19.519531 -175.253906 18.089844 -164.410156 Z M 18.089844 -164.410156 "/></g></g></g><g fill="#e89e30" fill-opacity="1"><g transform="translate(685.126954, 615.268266)"><g><path d="M 180.109375 -87.707031 C 175.046875 -63.027344 165.828125 -51.003906 156.433594 -49.585938 C 152.4375 -48.984375 149.449219 -51.1875 148.84375 -55.183594 C 148.574219 -56.984375 148.839844 -59.273438 149.277344 -61.792969 L 168.167969 -154.578125 C 169.132812 -159.015625 169.4375 -163.765625 168.59375 -169.359375 C 165.757812 -188.144531 149.855469 -200.050781 129.472656 -196.972656 C 117.480469 -195.160156 103.816406 -188.191406 95.90625 -176.980469 C 88.292969 -185.4375 81.511719 -189.726562 67.921875 -187.675781 C 55.132812 -185.742188 47.949219 -176.480469 47.300781 -175.363281 C 44.945312 -180.117188 38.746094 -183.265625 31.152344 -182.121094 C 25.359375 -181.246094 17.726562 -177.640625 16.105469 -169.421875 L -13.519531 -17.785156 C -14.015625 -15.664062 -13.746094 -13.867188 -13.472656 -12.066406 C -12.144531 -3.273438 -4.394531 0.664062 3.398438 -0.511719 C 10.191406 -1.539062 16.980469 -6.652344 18.851562 -15.929688 L 41.179688 -129.265625 C 43.953125 -143.378906 50.292969 -151.492188 59.285156 -152.847656 C 69.675781 -154.417969 73.679688 -146.847656 70.441406 -130.414062 L 49.988281 -29.011719 C 49.410156 -26.0625 49.203125 -23.375 49.535156 -21.175781 C 50.832031 -12.582031 58.550781 -8.84375 66.144531 -9.992188 C 73.140625 -11.046875 79.929688 -16.160156 81.769531 -25.636719 L 103.320312 -135.996094 C 106.066406 -150.308594 112.671875 -160.707031 122.460938 -162.1875 C 130.257812 -163.363281 136.476562 -157.355469 134.359375 -147.019531 L 118.0625 -65.457031 C 117.050781 -59.988281 116.894531 -54.242188 117.589844 -49.648438 C 120.578125 -29.863281 138.085938 -20.855469 157.46875 -23.785156 C 179.453125 -27.105469 198.261719 -44.664062 204.765625 -85.503906 C 204.925781 -87.160156 205.113281 -88.621094 204.902344 -90.019531 C 203.84375 -97.015625 197.246094 -100.105469 191.25 -99.199219 C 186.054688 -98.414062 181.511719 -94.664062 180.109375 -87.707031 Z M 180.109375 -87.707031 "/></g></g></g><g fill="#e89e30" fill-opacity="1"><g transform="translate(867.176983, 587.770355)"><g><path d="M 111.640625 -82.269531 C 106.433594 -54.503906 80.925781 -37.976562 56.945312 -34.355469 C 38.5625 -31.578125 27.089844 -39.859375 25.039062 -53.449219 C 22.351562 -71.234375 31.632812 -82.855469 51.21875 -85.816406 C 58.617188 -82.84375 64.683594 -81.921875 69.679688 -82.675781 C 81.667969 -84.488281 86.785156 -95.273438 85.367188 -104.667969 C 84.128906 -112.859375 77.925781 -120.097656 66.675781 -118.808594 C 54.683594 -116.996094 47.25 -124.253906 45.832031 -133.648438 C 43.871094 -146.636719 49.785156 -157.546875 62.976562 -159.539062 C 69.167969 -160.472656 75.828125 -156.984375 77.953125 -152.398438 C 82.257812 -142.828125 88.546875 -139.078125 95.542969 -140.132812 C 102.535156 -141.191406 108.605469 -147.011719 107.878906 -155.894531 C 105.878906 -177.261719 84.507812 -190.179688 59.53125 -186.40625 C 30.953125 -182.089844 9.613281 -155.566406 13.78125 -127.988281 C 15.046875 -119.59375 18.960938 -112.625 24.863281 -107.382812 C -4.066406 -97.289062 -10.691406 -68.082031 -7.492188 -46.902344 C -3.417969 -19.921875 23.582031 -3.5625 60.152344 -9.085938 C 97.519531 -14.730469 130.660156 -41.605469 136.515625 -81.324219 C 136.875 -83.015625 136.832031 -84.644531 136.621094 -86.042969 C 135.5625 -93.035156 129.394531 -95.988281 123.398438 -95.082031 C 117.804688 -94.238281 112.523438 -89.964844 111.640625 -82.269531 Z M 111.640625 -82.269531 "/></g></g></g><g fill="#000000" fill-opacity="1"><g transform="translate(503.10294, 633.729208)"><g><path d="M 114.886719 -190.679688 L 17.96875 -176.039062 C 6.636719 -173.921875 2.808594 -166.800781 3.773438 -160.40625 C 4.679688 -154.410156 9.949219 -149.28125 17.144531 -150.367188 L 48.121094 -155.046875 L 23.371094 -22.539062 C 22.875 -20.417969 22.976562 -18.390625 23.21875 -16.792969 C 24.484375 -8.398438 32.574219 -4.921875 40.167969 -6.066406 C 46.960938 -7.09375 53.210938 -11.714844 54.664062 -19.703125 L 81.09375 -160.027344 L 113.664062 -164.945312 C 124.855469 -166.636719 128.625 -174.15625 127.660156 -180.550781 C 126.753906 -186.546875 121.683594 -191.707031 114.886719 -190.679688 Z M 114.886719 -190.679688 "/></g></g></g><g fill="#000000" fill-opacity="1"><g transform="translate(622.604528, 615.678983)"><g><path d="M 18.089844 -164.410156 L -8.605469 -21.796875 C -9.152344 -18.648438 -9.160156 -15.988281 -8.769531 -13.390625 C -7.378906 -4.199219 0 0 7.195312 -1.085938 C 14.1875 -2.144531 20.628906 -8.226562 22.683594 -18.960938 L 49.382812 -161.574219 C 49.929688 -164.722656 49.933594 -167.378906 49.542969 -169.976562 C 48.15625 -179.167969 40.773438 -183.371094 33.582031 -182.28125 C 26.585938 -181.226562 19.519531 -175.253906 18.089844 -164.410156 Z M 18.089844 -164.410156 "/></g></g></g><g fill="#000000" fill-opacity="1"><g transform="translate(674.961406, 607.770691)"><g><path d="M 180.109375 -87.707031 C 175.046875 -63.027344 165.828125 -51.003906 156.433594 -49.585938 C 152.4375 -48.984375 149.449219 -51.1875 148.84375 -55.183594 C 148.574219 -56.984375 148.839844 -59.273438 149.277344 -61.792969 L 168.167969 -154.578125 C 169.132812 -159.015625 169.4375 -163.765625 168.59375 -169.359375 C 165.757812 -188.144531 149.855469 -200.050781 129.472656 -196.972656 C 117.480469 -195.160156 103.816406 -188.191406 95.90625 -176.980469 C 88.292969 -185.4375 81.511719 -189.726562 67.921875 -187.675781 C 55.132812 -185.742188 47.949219 -176.480469 47.300781 -175.363281 C 44.945312 -180.117188 38.746094 -183.265625 31.152344 -182.121094 C 25.359375 -181.246094 17.726562 -177.640625 16.105469 -169.421875 L -13.519531 -17.785156 C -14.015625 -15.664062 -13.746094 -13.867188 -13.472656 -12.066406 C -12.144531 -3.273438 -4.394531 0.664062 3.398438 -0.511719 C 10.191406 -1.539062 16.980469 -6.652344 18.851562 -15.929688 L 41.179688 -129.265625 C 43.953125 -143.378906 50.292969 -151.492188 59.285156 -152.847656 C 69.675781 -154.417969 73.679688 -146.847656 70.441406 -130.414062 L 49.988281 -29.011719 C 49.410156 -26.0625 49.203125 -23.375 49.535156 -21.175781 C 50.832031 -12.582031 58.550781 -8.84375 66.144531 -9.992188 C 73.140625 -11.046875 79.929688 -16.160156 81.769531 -25.636719 L 103.320312 -135.996094 C 106.066406 -150.308594 112.671875 -160.707031 122.460938 -162.1875 C 130.257812 -163.363281 136.476562 -157.355469 134.359375 -147.019531 L 118.0625 -65.457031 C 117.050781 -59.988281 116.894531 -54.242188 117.589844 -49.648438 C 120.578125 -29.863281 138.085938 -20.855469 157.46875 -23.785156 C 179.453125 -27.105469 198.261719 -44.664062 204.765625 -85.503906 C 204.925781 -87.160156 205.113281 -88.621094 204.902344 -90.019531 C 203.84375 -97.015625 197.246094 -100.105469 191.25 -99.199219 C 186.054688 -98.414062 181.511719 -94.664062 180.109375 -87.707031 Z M 180.109375 -87.707031 "/></g></g></g><g fill="#000000" fill-opacity="1"><g transform="translate(857.011435, 580.272779)"><g><path d="M 111.640625 -82.269531 C 106.433594 -54.503906 80.925781 -37.976562 56.945312 -34.355469 C 38.5625 -31.578125 27.089844 -39.859375 25.039062 -53.449219 C 22.351562 -71.234375 31.632812 -82.855469 51.21875 -85.816406 C 58.617188 -82.84375 64.683594 -81.921875 69.679688 -82.675781 C 81.667969 -84.488281 86.785156 -95.273438 85.367188 -104.667969 C 84.128906 -112.859375 77.925781 -120.097656 66.675781 -118.808594 C 54.683594 -116.996094 47.25 -124.253906 45.832031 -133.648438 C 43.871094 -146.636719 49.785156 -157.546875 62.976562 -159.539062 C 69.167969 -160.472656 75.828125 -156.984375 77.953125 -152.398438 C 82.257812 -142.828125 88.546875 -139.078125 95.542969 -140.132812 C 102.535156 -141.191406 108.605469 -147.011719 107.878906 -155.894531 C 105.878906 -177.261719 84.507812 -190.179688 59.53125 -186.40625 C 30.953125 -182.089844 9.613281 -155.566406 13.78125 -127.988281 C 15.046875 -119.59375 18.960938 -112.625 24.863281 -107.382812 C -4.066406 -97.289062 -10.691406 -68.082031 -7.492188 -46.902344 C -3.417969 -19.921875 23.582031 -3.5625 60.152344 -9.085938 C 97.519531 -14.730469 130.660156 -41.605469 136.515625 -81.324219 C 136.875 -83.015625 136.832031 -84.644531 136.621094 -86.042969 C 135.5625 -93.035156 129.394531 -95.988281 123.398438 -95.082031 C 117.804688 -94.238281 112.523438 -89.964844 111.640625 -82.269531 Z M 111.640625 -82.269531 "/></g></g></g><g clip-path="url(#id1)"><g clip-path="url(#id2)"><g clip-path="url(#id3)"><g clip-path="url(#id4)"><g clip-path="url(#id5)"><path fill="#e89e30" d="M 367.9375 270.601562 C 376.121094 269.957031 383.265625 276.054688 383.910156 284.226562 C 384.558594 292.398438 378.457031 299.546875 370.277344 300.191406 C 362.117188 300.839844 354.964844 294.738281 354.316406 286.566406 C 353.671875 278.394531 359.777344 271.25 367.9375 270.601562 Z M 457.003906 416.1875 L 337.195312 359.160156 L 446.554688 284.019531 C 448.746094 282.507812 449.117188 279.414062 447.367188 277.414062 C 422.234375 248.398438 383.898438 231.503906 342.59375 235.425781 C 276.777344 241.671875 227.140625 299.871094 231.425781 365.753906 C 235.886719 434.332031 295.59375 485.777344 363.921875 480.375 C 404.5 477.167969 438.898438 454.664062 458.84375 422.597656 C 460.257812 420.332031 459.402344 417.335938 457.003906 416.1875 " fill-opacity="1" fill-rule="nonzero"/></g></g></g></g></g><g clip-path="url(#id6)"><g clip-path="url(#id7)"><g clip-path="url(#id8)"><path fill="#e89e30" d="M 370.238281 284.277344 C 369.214844 284.359375 368.316406 283.59375 368.234375 282.570312 C 368.15625 281.550781 368.921875 280.648438 369.945312 280.566406 C 370.964844 280.488281 371.867188 281.257812 371.949219 282.277344 C 372.03125 283.300781 371.257812 284.199219 370.238281 284.277344 Z M 368.601562 279.015625 C 365.074219 279.292969 362.4375 282.378906 362.71875 285.902344 C 362.996094 289.441406 366.085938 292.082031 369.613281 291.800781 C 373.15625 291.523438 375.792969 288.429688 375.511719 284.890625 C 375.234375 281.367188 372.144531 278.734375 368.601562 279.015625 " fill-opacity="1" fill-rule="nonzero"/></g></g></g><g clip-path="url(#id9)"><g clip-path="url(#id10)"><g clip-path="url(#id11)"><g clip-path="url(#id12)"><g clip-path="url(#id13)"><path fill="#000000" d="M 337.164062 267.523438 C 345.34375 266.875 352.492188 272.972656 353.136719 281.148438 C 353.785156 289.320312 347.683594 296.464844 339.503906 297.113281 C 331.34375 297.757812 324.1875 291.65625 323.542969 283.484375 C 322.898438 275.3125 329.003906 268.167969 337.164062 267.523438 Z M 426.226562 413.105469 L 306.421875 356.078125 L 415.78125 280.9375 C 417.972656 279.425781 418.34375 276.332031 416.589844 274.332031 C 391.457031 245.316406 353.121094 228.421875 311.816406 232.34375 C 246 238.589844 196.367188 296.789062 200.648438 362.671875 C 205.113281 431.25 264.820312 482.695312 333.148438 477.296875 C 373.726562 474.085938 408.125 451.582031 428.066406 419.515625 C 429.480469 417.25 428.628906 414.253906 426.226562 413.105469 " fill-opacity="1" fill-rule="nonzero"/></g></g></g></g></g><g clip-path="url(#id14)"><g clip-path="url(#id15)"><g clip-path="url(#id16)"><path fill="#000000" d="M 339.464844 281.195312 C 338.4375 281.277344 337.542969 280.511719 337.460938 279.488281 C 337.378906 278.472656 338.144531 277.566406 339.171875 277.488281 C 340.1875 277.40625 341.09375 278.175781 341.175781 279.195312 C 341.253906 280.21875 340.480469 281.117188 339.464844 281.195312 Z M 337.828125 275.933594 C 334.300781 276.210938 331.664062 279.296875 331.941406 282.820312 C 332.222656 286.359375 335.3125 289 338.839844 288.71875 C 342.378906 288.441406 345.015625 285.347656 344.738281 281.8125 C 344.457031 278.285156 341.371094 275.652344 337.828125 275.933594 " fill-opacity="1" fill-rule="nonzero"/></g></g></g></svg>