<svg xmlns="http://www.w3.org/2000/svg" xmlns:xlink="http://www.w3.org/1999/xlink" width="1600" zoomAndPan="magnify" viewBox="0 0 1200 749.999995" height="1000" preserveAspectRatio="xMidYMid meet" version="1.0"><defs><clipPath id="id1"><path d="M 705 476.589844 L 783.792969 476.589844 L 783.792969 555.117188 L 705 555.117188 Z M 705 476.589844 " clip-rule="nonzero"/></clipPath><clipPath id="id2"><path d="M 511.898438 476.589844 L 590.492188 476.589844 L 590.492188 555.117188 L 511.898438 555.117188 Z M 511.898438 476.589844 " clip-rule="nonzero"/></clipPath><clipPath id="id3"><path d="M 340.902344 330 L 373 330 L 373 352 L 340.902344 352 Z M 340.902344 330 " clip-rule="nonzero"/></clipPath><clipPath id="id4"><path d="M 611.734375 174.449219 L 889.152344 174.449219 L 889.152344 437.824219 L 611.734375 437.824219 Z M 611.734375 174.449219 " clip-rule="nonzero"/></clipPath><clipPath id="id5"><path d="M 499.152344 548 L 553 548 L 553 555.117188 L 499.152344 555.117188 Z M 499.152344 548 " clip-rule="nonzero"/></clipPath><clipPath id="id6"><path d="M 695.636719 548 L 741.839844 548 L 741.839844 555.117188 L 695.636719 555.117188 Z M 695.636719 548 " clip-rule="nonzero"/></clipPath></defs><path fill="#e89e30" d="M 789.242188 432.179688 L 715.171875 432.179688 C 711.464844 432.179688 708.578125 428.972656 708.964844 425.285156 L 713.8125 379.15625 C 713.960938 377.753906 715.214844 376.617188 716.617188 376.617188 L 745.820312 376.617188 C 749.691406 376.617188 753.242188 378.15625 755.691406 380.890625 L 793.777344 423.449219 C 796.664062 426.671875 793.800781 432.179688 789.242188 432.179688 Z M 824.664062 438.335938 L 766.714844 373.585938 C 761.621094 367.894531 754.238281 364.699219 746.191406 364.699219 L 705.144531 364.699219 C 701.664062 364.699219 698.335938 365.875 695.570312 367.851562 L 697.664062 347.933594 C 698.621094 338.832031 691.484375 330.90625 682.332031 330.90625 L 393.121094 330.90625 C 387.558594 330.90625 383.046875 335.414062 383.046875 340.976562 C 383.046875 346.539062 387.558594 351.046875 393.121094 351.046875 L 538.042969 351.046875 C 543.609375 351.046875 548.117188 355.558594 548.117188 361.117188 C 548.117188 366.679688 543.609375 371.1875 538.042969 371.1875 L 413.53125 371.1875 C 407.96875 371.1875 403.457031 375.699219 403.457031 381.257812 C 403.457031 386.820312 407.96875 391.332031 413.53125 391.332031 L 528.070312 391.332031 C 533.632812 391.332031 538.140625 395.839844 538.140625 401.402344 C 538.140625 406.960938 533.632812 411.472656 528.070312 411.472656 L 366.910156 411.472656 C 361.351562 411.472656 356.839844 415.980469 356.839844 421.542969 C 356.839844 427.105469 361.351562 431.613281 366.910156 431.613281 L 481.011719 431.613281 C 486.578125 431.613281 491.085938 436.121094 491.085938 441.683594 C 491.085938 447.246094 486.578125 451.753906 481.011719 451.753906 L 410.457031 451.753906 C 404.894531 451.753906 400.386719 456.265625 400.386719 461.824219 C 400.386719 467.390625 404.894531 471.894531 410.457031 471.894531 L 439.460938 471.894531 L 436.617188 498.933594 C 435.660156 508.035156 442.800781 515.960938 451.953125 515.960938 L 503.984375 515.960938 C 503.984375 489.988281 525.117188 468.859375 551.09375 468.859375 C 577.066406 468.859375 598.199219 489.988281 598.199219 515.960938 L 697.222656 515.960938 C 697.222656 489.988281 718.351562 468.859375 744.328125 468.859375 C 770.300781 468.859375 791.433594 489.988281 791.433594 515.960938 L 803.671875 515.960938 C 815.667969 515.960938 826.414062 506.238281 827.671875 494.242188 L 831.296875 459.789062 C 832.140625 451.742188 829.757812 444.027344 824.664062 438.335938 " fill-opacity="1" fill-rule="nonzero"/><g clip-path="url(#id1)"><path fill="#e89e30" d="M 744.328125 532.824219 C 735.027344 532.824219 727.464844 525.261719 727.464844 515.960938 C 727.464844 506.664062 735.027344 499.101562 744.328125 499.101562 C 753.625 499.101562 761.191406 506.664062 761.191406 515.960938 C 761.191406 525.261719 753.625 532.824219 744.328125 532.824219 Z M 744.328125 476.804688 C 722.734375 476.804688 705.167969 494.371094 705.167969 515.960938 C 705.167969 537.550781 722.734375 555.117188 744.328125 555.117188 C 765.921875 555.117188 783.488281 537.550781 783.488281 515.960938 C 783.488281 494.371094 765.921875 476.804688 744.328125 476.804688 " fill-opacity="1" fill-rule="nonzero"/></g><g clip-path="url(#id2)"><path fill="#e89e30" d="M 551.09375 532.824219 C 541.796875 532.824219 534.230469 525.261719 534.230469 515.960938 C 534.230469 506.664062 541.796875 499.101562 551.09375 499.101562 C 560.390625 499.101562 567.957031 506.664062 567.957031 515.960938 C 567.957031 525.261719 560.390625 532.824219 551.09375 532.824219 Z M 551.09375 476.804688 C 529.5 476.804688 511.933594 494.371094 511.933594 515.960938 C 511.933594 537.550781 529.5 555.117188 551.09375 555.117188 C 572.683594 555.117188 590.253906 537.550781 590.253906 515.960938 C 590.253906 494.371094 572.683594 476.804688 551.09375 476.804688 " fill-opacity="1" fill-rule="nonzero"/></g><g clip-path="url(#id3)"><path fill="#e89e30" d="M 372.78125 340.976562 C 372.78125 335.414062 368.269531 330.90625 362.707031 330.90625 L 350.972656 330.90625 C 345.410156 330.90625 340.902344 335.414062 340.902344 340.976562 C 340.902344 346.539062 345.410156 351.046875 350.972656 351.046875 L 362.707031 351.046875 C 368.269531 351.046875 372.78125 346.539062 372.78125 340.976562 " fill-opacity="1" fill-rule="nonzero"/></g><path fill="#e89e30" d="M 362.070312 381.257812 C 362.070312 386.820312 366.578125 391.332031 372.140625 391.332031 L 383.875 391.332031 C 389.441406 391.332031 393.949219 386.820312 393.949219 381.257812 C 393.949219 375.699219 389.441406 371.1875 383.875 371.1875 L 372.140625 371.1875 C 366.578125 371.1875 362.070312 375.699219 362.070312 381.257812 " fill-opacity="1" fill-rule="nonzero"/><g clip-path="url(#id4)"><path fill="#e89e30" d="M 735.855469 174.445312 C 684.933594 174.445312 639.808594 199.269531 611.925781 237.472656 C 639.574219 210.417969 677.417969 193.738281 719.15625 193.738281 C 803.832031 193.738281 872.476562 262.375 872.476562 347.046875 C 872.476562 380.796875 861.566406 412 843.085938 437.320312 C 871.523438 409.492188 889.171875 370.6875 889.171875 327.753906 C 889.171875 243.085938 820.527344 174.445312 735.855469 174.445312 " fill-opacity="1" fill-rule="nonzero"/></g><path fill="#e89e30" d="M 736.605469 341.941406 C 736.605469 347.503906 732.097656 352.011719 726.535156 352.011719 C 720.972656 352.011719 716.460938 347.503906 716.460938 341.941406 C 716.460938 336.378906 720.972656 331.871094 726.535156 331.871094 C 732.097656 331.871094 736.605469 336.378906 736.605469 341.941406 " fill-opacity="1" fill-rule="nonzero"/><path fill="#e89e30" d="M 817.535156 294.347656 C 815.894531 291.210938 812.027344 290 808.890625 291.640625 L 733.894531 330.859375 C 737.476562 333.246094 739.835938 337.316406 739.835938 341.941406 C 739.835938 342.03125 739.832031 342.125 739.828125 342.214844 L 814.828125 302.992188 C 817.964844 301.351562 819.175781 297.484375 817.535156 294.347656 Z M 713.011719 278.195312 C 709.550781 278.929688 707.339844 282.328125 708.070312 285.789062 L 717.847656 331.871094 C 720.179688 329.855469 723.214844 328.636719 726.535156 328.636719 C 727.871094 328.636719 729.164062 328.839844 730.378906 329.207031 L 720.605469 283.132812 C 719.871094 279.671875 716.472656 277.460938 713.011719 278.195312 " fill-opacity="1" fill-rule="nonzero"/><g clip-path="url(#id5)"><path fill="#e89e30" d="M 552.8125 548.011719 L 552.8125 555.117188 L 499.492188 555.117188 Z M 552.8125 548.011719 " fill-opacity="1" fill-rule="nonzero"/></g><g clip-path="url(#id6)"><path fill="#e89e30" d="M 741.675781 548.011719 L 741.675781 555.117188 L 695.636719 555.117188 Z M 741.675781 548.011719 " fill-opacity="1" fill-rule="nonzero"/></g></svg>