<svg xmlns="http://www.w3.org/2000/svg" xmlns:xlink="http://www.w3.org/1999/xlink" width="500" zoomAndPan="magnify" viewBox="0 0 375 374.999991" height="500" preserveAspectRatio="xMidYMid meet" version="1.0"><defs><clipPath id="id1"><path d="M 60 61 L 294 61 L 294 314 L 60 314 Z M 60 61 " clip-rule="nonzero"/></clipPath><clipPath id="id2"><path d="M 51.25 71.300781 L 279.535156 54.675781 L 297.832031 305.941406 L 69.546875 322.566406 Z M 51.25 71.300781 " clip-rule="nonzero"/></clipPath><clipPath id="id3"><path d="M 51.25 71.300781 L 279.535156 54.675781 L 297.832031 305.941406 L 69.546875 322.566406 Z M 51.25 71.300781 " clip-rule="nonzero"/></clipPath><clipPath id="id4"><path d="M 51.71875 71.265625 L 279.9375 54.644531 L 298.238281 305.914062 L 70.015625 322.53125 Z M 51.71875 71.265625 " clip-rule="nonzero"/></clipPath><clipPath id="id5"><path d="M 51.71875 71.265625 L 279.136719 54.703125 L 297.433594 305.972656 L 70.015625 322.53125 Z M 51.71875 71.265625 " clip-rule="nonzero"/></clipPath><clipPath id="id6"><path d="M 195 107 L 209 107 L 209 121 L 195 121 Z M 195 107 " clip-rule="nonzero"/></clipPath><clipPath id="id7"><path d="M 51.25 71.300781 L 279.535156 54.675781 L 297.832031 305.941406 L 69.546875 322.566406 Z M 51.25 71.300781 " clip-rule="nonzero"/></clipPath><clipPath id="id8"><path d="M 51.25 71.300781 L 279.535156 54.675781 L 297.832031 305.941406 L 69.546875 322.566406 Z M 51.25 71.300781 " clip-rule="nonzero"/></clipPath><clipPath id="id9"><path d="M 181 91 L 223 91 L 223 133 L 181 133 Z M 181 91 " clip-rule="nonzero"/></clipPath><clipPath id="id10"><path d="M 180.984375 92.335938 L 221.667969 90.890625 L 223.113281 131.574219 L 182.429688 133.019531 Z M 180.984375 92.335938 " clip-rule="nonzero"/></clipPath><clipPath id="id11"><path d="M 63 64 L 292 64 L 292 311 L 63 311 Z M 63 64 " clip-rule="nonzero"/></clipPath><clipPath id="id12"><path d="M 53.449219 74.804688 L 276.253906 57.195312 L 295.636719 302.429688 L 72.832031 320.042969 Z M 53.449219 74.804688 " clip-rule="nonzero"/></clipPath><clipPath id="id13"><path d="M 53.449219 74.804688 L 276.253906 57.195312 L 295.636719 302.429688 L 72.832031 320.042969 Z M 53.449219 74.804688 " clip-rule="nonzero"/></clipPath><clipPath id="id14"><path d="M 53.90625 74.769531 L 276.648438 57.164062 L 296.03125 302.398438 L 73.289062 320.003906 Z M 53.90625 74.769531 " clip-rule="nonzero"/></clipPath><clipPath id="id15"><path d="M 53.90625 74.769531 L 275.863281 57.226562 L 295.246094 302.460938 L 73.289062 320.003906 Z M 53.90625 74.769531 " clip-rule="nonzero"/></clipPath><clipPath id="id16"><path d="M 194 108 L 208 108 L 208 122 L 194 122 Z M 194 108 " clip-rule="nonzero"/></clipPath><clipPath id="id17"><path d="M 53.449219 74.804688 L 276.253906 57.195312 L 295.636719 302.429688 L 72.832031 320.042969 Z M 53.449219 74.804688 " clip-rule="nonzero"/></clipPath><clipPath id="id18"><path d="M 53.449219 74.804688 L 276.253906 57.195312 L 295.636719 302.429688 L 72.832031 320.042969 Z M 53.449219 74.804688 " clip-rule="nonzero"/></clipPath></defs><g clip-path="url(#id1)"><g clip-path="url(#id2)"><g clip-path="url(#id3)"><g clip-path="url(#id4)"><g clip-path="url(#id5)"><path fill="#ffffff" d="M 200.832031 98.503906 C 209.195312 97.894531 216.460938 104.191406 217.070312 112.566406 C 217.679688 120.945312 211.402344 128.226562 203.039062 128.835938 C 194.695312 129.445312 187.425781 123.148438 186.8125 114.769531 C 186.203125 106.394531 192.488281 99.113281 200.832031 98.503906 Z M 290.953125 248.242188 L 168.871094 189.035156 L 281.085938 112.765625 C 283.332031 111.230469 283.734375 108.0625 281.953125 106 C 256.449219 76.109375 217.378906 58.550781 175.144531 62.296875 C 107.851562 68.265625 56.777344 127.570312 60.75 195.097656 C 64.890625 265.386719 125.585938 318.484375 195.441406 313.398438 C 236.929688 310.378906 272.214844 287.546875 292.792969 254.820312 C 294.25 252.507812 293.398438 249.433594 290.953125 248.242188 " fill-opacity="1" fill-rule="nonzero"/></g></g></g></g></g><g clip-path="url(#id6)"><g clip-path="url(#id7)"><g clip-path="url(#id8)"><path fill="#ffffff" d="M 203.097656 112.53125 C 202.050781 112.605469 201.136719 111.816406 201.058594 110.765625 C 200.984375 109.722656 201.773438 108.804688 202.820312 108.726562 C 203.863281 108.652344 204.78125 109.449219 204.859375 110.492188 C 204.933594 111.539062 204.140625 112.453125 203.097656 112.53125 Z M 201.457031 107.125 C 197.851562 107.390625 195.140625 110.535156 195.402344 114.144531 C 195.667969 117.773438 198.804688 120.496094 202.414062 120.234375 C 206.035156 119.96875 208.746094 116.820312 208.480469 113.191406 C 208.21875 109.582031 205.078125 106.863281 201.457031 107.125 " fill-opacity="1" fill-rule="nonzero"/></g></g></g><g clip-path="url(#id9)"><g clip-path="url(#id10)"><path fill="#ffffff" d="M 201.328125 91.613281 C 190.09375 92.015625 181.308594 101.445312 181.707031 112.679688 C 182.105469 123.914062 191.539062 132.695312 202.773438 132.296875 C 214.007812 131.898438 222.789062 122.46875 222.390625 111.234375 C 221.992188 100 212.5625 91.214844 201.328125 91.613281 " fill-opacity="1" fill-rule="nonzero"/></g></g><g clip-path="url(#id11)"><g clip-path="url(#id12)"><g clip-path="url(#id13)"><g clip-path="url(#id14)"><g clip-path="url(#id15)"><path fill="#e89e30" d="M 199.667969 100.46875 C 207.832031 99.820312 214.964844 105.925781 215.613281 114.101562 C 216.257812 122.277344 210.171875 129.425781 202.007812 130.070312 C 193.867188 130.714844 186.726562 124.609375 186.082031 116.433594 C 185.433594 108.257812 191.527344 101.109375 199.667969 100.46875 Z M 288.570312 246.128906 L 169.011719 189.054688 L 278.117188 113.90625 C 280.304688 112.394531 280.675781 109.300781 278.925781 107.296875 C 253.839844 78.265625 215.585938 61.355469 174.371094 65.269531 C 108.699219 71.503906 59.183594 129.71875 63.472656 195.628906 C 67.9375 264.238281 127.527344 315.71875 195.707031 310.328125 C 236.195312 307.128906 270.511719 284.621094 290.40625 252.546875 C 291.820312 250.277344 290.964844 247.28125 288.570312 246.128906 " fill-opacity="1" fill-rule="nonzero"/></g></g></g></g></g><g clip-path="url(#id16)"><g clip-path="url(#id17)"><g clip-path="url(#id18)"><path fill="#e89e30" d="M 201.96875 114.148438 C 200.945312 114.230469 200.046875 113.464844 199.96875 112.4375 C 199.886719 111.421875 200.652344 110.519531 201.675781 110.4375 C 202.691406 110.355469 203.59375 111.128906 203.675781 112.144531 C 203.753906 113.171875 202.984375 114.070312 201.96875 114.148438 Z M 200.335938 108.882812 C 196.816406 109.160156 194.183594 112.246094 194.464844 115.773438 C 194.742188 119.3125 197.824219 121.953125 201.347656 121.675781 C 204.878906 121.394531 207.507812 118.304688 207.230469 114.765625 C 206.949219 111.238281 203.867188 108.601562 200.335938 108.882812 " fill-opacity="1" fill-rule="nonzero"/></g></g></g></svg>