<svg xmlns="http://www.w3.org/2000/svg" xmlns:xlink="http://www.w3.org/1999/xlink" width="1600" zoomAndPan="magnify" viewBox="0 0 1200 749.999995" height="1000" preserveAspectRatio="xMidYMid meet" version="1.0"><defs><g/><clipPath id="id1"><path d="M 509 120 L 1114 120 L 1114 364 L 509 364 Z M 509 120 " clip-rule="nonzero"/></clipPath><clipPath id="id2"><path d="M 509.160156 243.183594 L 1088.042969 120.445312 L 1113.554688 240.769531 L 534.671875 363.507812 Z M 509.160156 243.183594 " clip-rule="nonzero"/></clipPath><clipPath id="id3"><path d="M 509 120 L 1114 120 L 1114 364 L 509 364 Z M 509 120 " clip-rule="nonzero"/></clipPath><clipPath id="id4"><path d="M 509.160156 243.183594 L 1088.042969 120.445312 L 1113.554688 240.769531 L 534.671875 363.507812 Z M 509.160156 243.183594 " clip-rule="nonzero"/></clipPath><clipPath id="id5"><path d="M 509.179688 243.179688 L 1091.5 119.710938 L 1117.632812 242.960938 L 535.3125 366.429688 Z M 509.179688 243.179688 " clip-rule="nonzero"/></clipPath><clipPath id="id6"><path d="M 509.179688 243.179688 L 1088.019531 120.449219 L 1113.53125 240.773438 L 534.695312 363.503906 Z M 509.179688 243.179688 " clip-rule="nonzero"/></clipPath><clipPath id="id7"><path d="M 77.855469 188.03125 L 535.355469 188.03125 L 535.355469 347.03125 L 77.855469 347.03125 Z M 77.855469 188.03125 " clip-rule="nonzero"/></clipPath><clipPath id="id8"><path d="M 77.863281 188.03125 L 535.347656 188.03125 L 535.347656 347.03125 L 77.863281 347.03125 Z M 77.863281 188.03125 " clip-rule="nonzero"/></clipPath></defs><g clip-path="url(#id1)"><g clip-path="url(#id2)"><path fill="#e89e30" d="M 509.179688 243.179688 L 1088.019531 120.449219 L 1113.53125 240.773438 L 534.695312 363.503906 L 509.179688 243.179688 " fill-opacity="1" fill-rule="nonzero"/></g></g><g clip-path="url(#id3)"><g clip-path="url(#id4)"><g clip-path="url(#id5)"><g clip-path="url(#id6)"><path stroke-linecap="butt" transform="matrix(0.733297, -0.155479, 0.155563, 0.733689, 509.181123, 243.179187)" fill="none" stroke-linejoin="miter" d="M -0.00201233 0.000255252 L 789.363844 -0.000197853 L 789.36338 163.998534 L 0.0026216 164.000068 L -0.00201233 0.000255252 " stroke="#000000" stroke-width="8" stroke-opacity="1" stroke-miterlimit="4"/></g></g></g></g><g fill="#000000" fill-opacity="1"><g transform="translate(544.650525, 323.901921)"><g><path d="M 5.792969 -1.21875 L 25.242188 -5.3125 C 41.449219 -8.722656 51.9375 -24.671875 48.507812 -40.976562 C 45.074219 -57.28125 29.046875 -67.652344 12.839844 -64.242188 L -6.605469 -60.148438 Z M 16.339844 -15.4375 L 8.777344 -51.386719 L 15.160156 -52.730469 C 24.492188 -54.695312 33.390625 -48.464844 35.542969 -38.25 C 37.691406 -28.035156 32.054688 -18.746094 22.726562 -16.78125 Z M 16.339844 -15.4375 "/></g></g></g><g fill="#000000" fill-opacity="1"><g transform="translate(627.739904, 306.417066)"><g><path d="M 31.738281 -56.320312 L 29.339844 -67.714844 L -6.113281 -60.253906 L 6.285156 -1.324219 L 41.742188 -8.785156 L 39.34375 -20.175781 L 16.851562 -15.445312 L 14.25 -27.820312 L 33.5 -31.871094 L 31.101562 -43.265625 L 11.851562 -39.210938 L 9.246094 -51.589844 Z M 31.738281 -56.320312 "/></g></g></g><g fill="#000000" fill-opacity="1"><g transform="translate(698.258361, 291.577564)"><g><path d="M 16.339844 -15.4375 L 6.359375 -62.878906 L -6.605469 -60.148438 L 5.792969 -1.21875 L 38.304688 -8.0625 L 35.886719 -19.550781 Z M 16.339844 -15.4375 "/></g></g></g><g fill="#000000" fill-opacity="1"><g transform="translate(761.509251, 278.267408)"><g><path d="M 6.285156 -1.324219 L 19.25 -4.050781 L 6.851562 -62.980469 L -6.113281 -60.253906 Z M 6.285156 -1.324219 "/></g></g></g><g fill="#000000" fill-opacity="1"><g transform="translate(811.698171, 267.705937)"><g><path d="M 28.851562 -67.609375 L 23.671875 -22.519531 L 0.761719 -61.699219 L -13.679688 -58.660156 L 19.9375 -4.195312 L 34.472656 -7.253906 L 43.289062 -70.648438 Z M 28.851562 -67.609375 "/></g></g></g><g fill="#000000" fill-opacity="1"><g transform="translate(890.85914, 251.047755)"><g><path d="M 31.738281 -56.320312 L 29.339844 -67.714844 L -6.113281 -60.253906 L 6.285156 -1.324219 L 41.742188 -8.785156 L 39.34375 -20.175781 L 16.851562 -15.445312 L 14.25 -27.820312 L 33.5 -31.871094 L 31.101562 -43.265625 L 11.851562 -39.210938 L 9.246094 -51.589844 Z M 31.738281 -56.320312 "/></g></g></g><g fill="#000000" fill-opacity="1"><g transform="translate(961.377608, 236.20825)"><g><path d="M 31.433594 -31.949219 C 37.972656 -35.476562 41.519531 -42.992188 39.824219 -51.046875 C 37.714844 -61.066406 28.554688 -67.550781 18.4375 -65.421875 L -6.605469 -60.148438 L 5.792969 -1.21875 L 18.757812 -3.949219 L 13.964844 -26.734375 L 19.171875 -27.828125 L 38.5 -8.101562 L 53.039062 -11.160156 Z M 21.828125 -39.570312 L 11.710938 -37.441406 L 8.777344 -51.386719 L 18.894531 -53.515625 C 23.019531 -54.382812 26.683594 -52.078125 27.53125 -48.050781 C 28.398438 -43.925781 25.953125 -40.4375 21.828125 -39.570312 Z M 21.828125 -39.570312 "/></g></g></g><g fill="#000000" fill-opacity="1"><g transform="translate(1038.672584, 219.942736)"><g><path d="M 40.539062 -70.070312 L 26.101562 -67.03125 L 17.722656 -44.449219 L 0.957031 -61.742188 L -13.679688 -58.660156 L 13.617188 -31.789062 L 19.445312 -4.09375 L 32.410156 -6.820312 L 26.5625 -34.617188 Z M 40.539062 -70.070312 "/></g></g></g><g clip-path="url(#id7)"><path fill="#e89e30" d="M 77.863281 188.03125 L 535.347656 188.03125 L 535.347656 347.03125 L 77.863281 347.03125 L 77.863281 188.03125 " fill-opacity="1" fill-rule="nonzero"/></g><g clip-path="url(#id8)"><path stroke-linecap="butt" transform="matrix(0.749539, 0, 0, 0.749337, 77.863162, 188.029595)" fill="none" stroke-linejoin="miter" d="M 0.000159037 0.00220884 L 610.354396 0.00220884 L 610.354396 212.189732 L 0.000159037 212.189732 L 0.000159037 0.00220884 " stroke="#000000" stroke-width="8" stroke-opacity="1" stroke-miterlimit="4"/></g><g fill="#000000" fill-opacity="1"><g transform="translate(90.736495, 311.393293)"><g><path d="M 63.242188 -72.019531 L 63.242188 -89.28125 L 9.523438 -89.28125 L 9.523438 0 L 29.164062 0 L 29.164062 -36.011719 L 58.332031 -36.011719 L 58.332031 -53.269531 L 29.164062 -53.269531 L 29.164062 -72.019531 Z M 63.242188 -72.019531 "/></g></g></g><g fill="#000000" fill-opacity="1"><g transform="translate(178.678042, 311.393293)"><g><path d="M 51.335938 1.191406 C 76.78125 1.191406 97.167969 -19.34375 97.167969 -44.640625 C 97.167969 -69.9375 76.78125 -90.472656 51.335938 -90.472656 C 26.039062 -90.472656 5.503906 -69.9375 5.503906 -44.640625 C 5.503906 -19.34375 26.039062 1.191406 51.335938 1.191406 Z M 51.335938 -18.003906 C 36.308594 -18.003906 24.851562 -29.613281 24.851562 -44.640625 C 24.851562 -59.667969 36.308594 -71.277344 51.335938 -71.277344 C 66.515625 -71.277344 77.972656 -59.667969 77.972656 -44.640625 C 77.972656 -29.613281 66.515625 -18.003906 51.335938 -18.003906 Z M 51.335938 -18.003906 "/></g></g></g><g fill="#000000" fill-opacity="1"><g transform="translate(304.711901, 311.393293)"><g><path d="M 51.335938 1.191406 C 76.78125 1.191406 97.167969 -19.34375 97.167969 -44.640625 C 97.167969 -69.9375 76.78125 -90.472656 51.335938 -90.472656 C 26.039062 -90.472656 5.503906 -69.9375 5.503906 -44.640625 C 5.503906 -19.34375 26.039062 1.191406 51.335938 1.191406 Z M 51.335938 -18.003906 C 36.308594 -18.003906 24.851562 -29.613281 24.851562 -44.640625 C 24.851562 -59.667969 36.308594 -71.277344 51.335938 -71.277344 C 66.515625 -71.277344 77.972656 -59.667969 77.972656 -44.640625 C 77.972656 -29.613281 66.515625 -18.003906 51.335938 -18.003906 Z M 51.335938 -18.003906 "/></g></g></g><g fill="#000000" fill-opacity="1"><g transform="translate(430.745761, 311.393293)"><g><path d="M 8.78125 0 L 38.242188 0 C 62.792969 0 82.882812 -19.9375 82.882812 -44.640625 C 82.882812 -69.339844 62.792969 -89.28125 38.242188 -89.28125 L 8.78125 -89.28125 Z M 28.421875 -17.410156 L 28.421875 -71.871094 L 38.09375 -71.871094 C 52.230469 -71.871094 63.242188 -60.117188 63.242188 -44.640625 C 63.242188 -29.164062 52.230469 -17.410156 38.09375 -17.410156 Z M 28.421875 -17.410156 "/></g></g></g></svg>