<svg xmlns="http://www.w3.org/2000/svg" xmlns:xlink="http://www.w3.org/1999/xlink" width="1600" zoomAndPan="magnify" viewBox="0 0 1200 749.999995" height="1000" preserveAspectRatio="xMidYMid meet" version="1.0"><defs><clipPath id="id1"><path d="M 403 180.347656 L 444 180.347656 L 444 238 L 403 238 Z M 403 180.347656 " clip-rule="nonzero"/></clipPath><clipPath id="id2"><path d="M 467 427 L 508 427 L 508 442.847656 L 467 442.847656 Z M 467 427 " clip-rule="nonzero"/></clipPath></defs><path fill="#f4f4f4" d="M 423.734375 246.300781 C 434.882812 246.300781 443.917969 242.742188 443.917969 238.359375 C 443.917969 235.171875 439.15625 232.425781 432.28125 231.160156 C 431.625 232.023438 430.996094 232.835938 430.402344 233.59375 C 435.269531 234.339844 438.617188 235.886719 438.617188 237.671875 C 438.617188 240.195312 431.953125 242.242188 423.734375 242.242188 C 415.515625 242.242188 408.851562 240.195312 408.851562 237.671875 C 408.851562 235.886719 412.195312 234.339844 417.066406 233.59375 C 416.46875 232.835938 415.839844 232.023438 415.1875 231.160156 C 408.3125 232.425781 403.546875 235.171875 403.546875 238.359375 C 403.546875 242.742188 412.585938 246.300781 423.734375 246.300781 " fill-opacity="1" fill-rule="nonzero"/><g clip-path="url(#id1)"><path fill="#f4f4f4" d="M 415.082031 199.6875 C 415.082031 194.902344 418.957031 191.027344 423.734375 191.027344 C 428.511719 191.027344 432.386719 194.902344 432.386719 199.6875 C 432.386719 204.472656 428.511719 208.351562 423.734375 208.351562 C 418.957031 208.351562 415.082031 204.472656 415.082031 199.6875 Z M 443.917969 200.554688 C 443.917969 189.394531 434.882812 180.347656 423.734375 180.347656 C 412.585938 180.347656 403.546875 189.394531 403.546875 200.554688 C 403.546875 215.191406 423.734375 237.5 423.734375 237.5 C 423.734375 237.5 443.917969 215.191406 443.917969 200.554688 " fill-opacity="1" fill-rule="nonzero"/></g><g clip-path="url(#id2)"><path fill="#f4f4f4" d="M 496.25 427.707031 C 495.597656 428.570312 494.96875 429.386719 494.371094 430.140625 C 499.242188 430.886719 502.585938 432.433594 502.585938 434.21875 C 502.585938 436.742188 495.921875 438.789062 487.703125 438.789062 C 479.484375 438.789062 472.824219 436.742188 472.824219 434.21875 C 472.824219 432.433594 476.167969 430.886719 481.035156 430.140625 C 480.441406 429.386719 479.8125 428.570312 479.15625 427.707031 C 472.28125 428.972656 467.519531 431.71875 467.519531 434.90625 C 467.519531 439.292969 476.554688 442.847656 487.703125 442.847656 C 498.851562 442.847656 507.890625 439.292969 507.890625 434.90625 C 507.890625 431.71875 503.125 428.972656 496.25 427.707031 " fill-opacity="1" fill-rule="nonzero"/></g><path fill="#f4f4f4" d="M 487.703125 404.898438 C 482.925781 404.898438 479.050781 401.019531 479.050781 396.238281 C 479.050781 391.449219 482.925781 387.574219 487.703125 387.574219 C 492.484375 387.574219 496.359375 391.449219 496.359375 396.238281 C 496.359375 401.019531 492.484375 404.898438 487.703125 404.898438 Z M 487.703125 376.894531 C 476.554688 376.894531 467.519531 385.941406 467.519531 397.105469 C 467.519531 411.738281 487.703125 434.046875 487.703125 434.046875 C 487.703125 434.046875 507.890625 411.738281 507.890625 397.105469 C 507.890625 385.941406 498.851562 376.894531 487.703125 376.894531 " fill-opacity="1" fill-rule="nonzero"/><path fill="#f4f4f4" d="M 461.519531 242.578125 C 459.421875 242.257812 457.285156 241.945312 455.101562 241.632812 C 453.332031 241.367188 451.699219 242.601562 451.445312 244.371094 C 451.191406 246.136719 452.417969 247.777344 454.183594 248.03125 C 456.347656 248.34375 458.472656 248.65625 460.554688 248.96875 C 460.714844 248.996094 460.878906 249.007812 461.042969 249.007812 C 462.613281 249.007812 463.988281 247.859375 464.230469 246.257812 C 464.496094 244.496094 463.285156 242.847656 461.519531 242.578125 " fill-opacity="1" fill-rule="nonzero"/><path fill="#f4f4f4" d="M 383.671875 397.15625 C 383 395.507812 381.113281 394.710938 379.464844 395.382812 C 377.8125 396.058594 377.019531 397.945312 377.691406 399.601562 C 379.304688 403.558594 382.273438 407.425781 386.507812 411.085938 C 387.117188 411.617188 387.871094 411.875 388.617188 411.875 C 389.523438 411.875 390.421875 411.496094 391.0625 410.753906 C 392.230469 409.402344 392.082031 407.363281 390.730469 406.195312 C 387.269531 403.203125 384.898438 400.164062 383.671875 397.15625 " fill-opacity="1" fill-rule="nonzero"/><path fill="#f4f4f4" d="M 422.695312 356.839844 C 426.410156 355.082031 430.398438 353.304688 434.546875 351.570312 C 436.191406 350.882812 436.96875 348.988281 436.28125 347.34375 C 435.59375 345.695312 433.699219 344.917969 432.054688 345.605469 C 427.816406 347.378906 423.734375 349.191406 419.929688 350.996094 C 418.320312 351.757812 417.632812 353.6875 418.394531 355.300781 C 418.945312 356.46875 420.105469 357.152344 421.3125 357.152344 C 421.777344 357.152344 422.25 357.050781 422.695312 356.839844 " fill-opacity="1" fill-rule="nonzero"/><path fill="#f4f4f4" d="M 398.460938 369.992188 C 399.09375 369.992188 399.734375 369.804688 400.292969 369.417969 C 403.496094 367.207031 407.160156 364.953125 411.195312 362.71875 C 412.753906 361.851562 413.320312 359.882812 412.457031 358.320312 C 411.589844 356.757812 409.628906 356.195312 408.0625 357.058594 C 403.847656 359.398438 399.996094 361.769531 396.625 364.097656 C 395.15625 365.113281 394.789062 367.125 395.800781 368.59375 C 396.429688 369.503906 397.433594 369.992188 398.460938 369.992188 " fill-opacity="1" fill-rule="nonzero"/><path fill="#f4f4f4" d="M 412.429688 418.855469 C 408.191406 417.015625 404.339844 415.121094 400.984375 413.226562 C 399.433594 412.347656 397.464844 412.898438 396.585938 414.449219 C 395.710938 416.007812 396.257812 417.976562 397.808594 418.855469 C 401.359375 420.863281 405.414062 422.855469 409.859375 424.785156 C 410.277344 424.96875 410.714844 425.054688 411.144531 425.054688 C 412.390625 425.054688 413.578125 424.328125 414.109375 423.109375 C 414.820312 421.46875 414.070312 419.566406 412.429688 418.855469 " fill-opacity="1" fill-rule="nonzero"/><path fill="#f4f4f4" d="M 473.433594 251.042969 C 477.871094 251.796875 482.183594 252.582031 486.246094 253.375 C 486.453125 253.414062 486.660156 253.433594 486.867188 253.433594 C 488.382812 253.433594 489.730469 252.363281 490.03125 250.820312 C 490.371094 249.066406 489.230469 247.367188 487.480469 247.027344 C 483.367188 246.226562 479.007812 245.433594 474.519531 244.667969 C 472.769531 244.371094 471.089844 245.550781 470.792969 247.3125 C 470.492188 249.074219 471.675781 250.742188 473.433594 251.042969 " fill-opacity="1" fill-rule="nonzero"/><path fill="#f4f4f4" d="M 379.566406 388.636719 C 379.960938 388.796875 380.371094 388.871094 380.773438 388.871094 C 382.050781 388.871094 383.261719 388.109375 383.769531 386.847656 C 385 383.785156 387.292969 380.582031 390.574219 377.320312 C 391.839844 376.0625 391.847656 374.015625 390.59375 372.746094 C 389.335938 371.484375 387.292969 371.472656 386.027344 372.730469 C 382.117188 376.613281 379.34375 380.546875 377.78125 384.429688 C 377.113281 386.085938 377.914062 387.96875 379.566406 388.636719 " fill-opacity="1" fill-rule="nonzero"/><path fill="#f4f4f4" d="M 558.753906 281.292969 C 558.070312 276.789062 555.25 272.550781 550.378906 268.691406 C 548.976562 267.582031 546.949219 267.820312 545.839844 269.21875 C 544.734375 270.621094 544.96875 272.65625 546.371094 273.761719 C 549.921875 276.570312 551.9375 279.433594 552.367188 282.265625 C 552.613281 283.867188 553.988281 285.015625 555.558594 285.015625 C 555.71875 285.015625 555.882812 285.003906 556.046875 284.976562 C 557.808594 284.707031 559.023438 283.058594 558.753906 281.292969 " fill-opacity="1" fill-rule="nonzero"/><path fill="#f4f4f4" d="M 553.433594 291.222656 C 552.046875 290.105469 550.011719 290.324219 548.890625 291.714844 C 546.785156 294.332031 543.738281 297.097656 539.839844 299.925781 C 538.398438 300.976562 538.074219 303 539.125 304.445312 C 539.753906 305.316406 540.742188 305.777344 541.742188 305.777344 C 542.398438 305.777344 543.0625 305.578125 543.636719 305.160156 C 547.996094 301.992188 551.457031 298.835938 553.921875 295.773438 C 555.039062 294.378906 554.820312 292.34375 553.433594 291.222656 " fill-opacity="1" fill-rule="nonzero"/><path fill="#f4f4f4" d="M 513.238281 252.90625 C 509.25 251.828125 504.929688 250.761719 500.390625 249.734375 C 498.65625 249.335938 496.921875 250.433594 496.527344 252.175781 C 496.136719 253.914062 497.226562 255.644531 498.96875 256.039062 C 503.417969 257.046875 507.652344 258.089844 511.554688 259.148438 C 511.835938 259.222656 512.121094 259.261719 512.398438 259.261719 C 513.824219 259.261719 515.125 258.308594 515.511719 256.867188 C 515.980469 255.144531 514.960938 253.371094 513.238281 252.90625 " fill-opacity="1" fill-rule="nonzero"/><path fill="#f4f4f4" d="M 436.714844 427.648438 C 432.371094 426.308594 428.234375 424.9375 424.425781 423.570312 C 422.734375 422.964844 420.894531 423.84375 420.292969 425.523438 C 419.691406 427.207031 420.566406 429.058594 422.246094 429.660156 C 426.148438 431.058594 430.378906 432.460938 434.8125 433.832031 C 435.128906 433.929688 435.449219 433.972656 435.765625 433.972656 C 437.144531 433.972656 438.421875 433.082031 438.851562 431.691406 C 439.375 429.984375 438.421875 428.175781 436.714844 427.648438 " fill-opacity="1" fill-rule="nonzero"/><path fill="#f4f4f4" d="M 540.050781 265.949219 C 540.800781 264.328125 540.09375 262.40625 538.476562 261.65625 C 534.835938 259.976562 530.628906 258.320312 525.96875 256.742188 C 524.28125 256.171875 522.449219 257.082031 521.878906 258.769531 C 521.304688 260.460938 522.210938 262.296875 523.902344 262.871094 C 528.34375 264.371094 532.335938 265.941406 535.765625 267.527344 C 536.203125 267.730469 536.664062 267.824219 537.117188 267.824219 C 538.339844 267.824219 539.507812 267.128906 540.050781 265.949219 " fill-opacity="1" fill-rule="nonzero"/><path fill="#f4f4f4" d="M 529.070312 306.742188 C 525.636719 308.675781 521.777344 310.675781 517.601562 312.679688 C 515.996094 313.453125 515.316406 315.382812 516.085938 316.992188 C 516.644531 318.152344 517.796875 318.828125 519 318.828125 C 519.46875 318.828125 519.945312 318.726562 520.398438 318.511719 C 524.699219 316.445312 528.683594 314.378906 532.238281 312.378906 C 533.792969 311.5 534.339844 309.53125 533.46875 307.972656 C 532.589844 306.421875 530.625 305.863281 529.070312 306.742188 " fill-opacity="1" fill-rule="nonzero"/><path fill="#f4f4f4" d="M 505.777344 318.027344 C 502 319.644531 497.945312 321.300781 493.722656 322.953125 C 492.0625 323.605469 491.242188 325.484375 491.894531 327.144531 C 492.390625 328.421875 493.613281 329.199219 494.902344 329.199219 C 495.292969 329.199219 495.691406 329.128906 496.078125 328.976562 C 500.363281 327.296875 504.480469 325.613281 508.316406 323.96875 C 509.957031 323.269531 510.71875 321.371094 510.019531 319.726562 C 509.316406 318.085938 507.410156 317.320312 505.777344 318.027344 " fill-opacity="1" fill-rule="nonzero"/><path fill="#f4f4f4" d="M 470.265625 338.265625 C 470.613281 338.265625 470.972656 338.207031 471.328125 338.085938 C 475.199219 336.730469 479.378906 335.25 483.738281 333.648438 C 485.414062 333.039062 486.273438 331.179688 485.660156 329.503906 C 485.042969 327.824219 483.183594 326.96875 481.515625 327.578125 C 477.191406 329.164062 473.042969 330.636719 469.199219 331.976562 C 467.515625 332.566406 466.625 334.410156 467.214844 336.09375 C 467.675781 337.429688 468.925781 338.265625 470.265625 338.265625 " fill-opacity="1" fill-rule="nonzero"/><path fill="#f4f4f4" d="M 456.796875 336.265625 L 453.578125 337.382812 C 450.429688 338.484375 447.328125 339.613281 444.363281 340.726562 C 442.691406 341.359375 441.847656 343.222656 442.476562 344.894531 C 442.960938 346.191406 444.195312 346.988281 445.5 346.988281 C 445.875 346.988281 446.261719 346.921875 446.636719 346.78125 C 449.554688 345.679688 452.609375 344.574219 455.707031 343.484375 L 458.902344 342.375 C 460.589844 341.792969 461.484375 339.953125 460.902344 338.265625 C 460.320312 336.578125 458.476562 335.679688 456.796875 336.265625 " fill-opacity="1" fill-rule="nonzero"/><path fill="#f4f4f4" d="M 455.445312 432.90625 C 453.324219 432.363281 451.253906 431.816406 449.238281 431.265625 C 447.511719 430.796875 445.738281 431.820312 445.273438 433.542969 C 444.808594 435.265625 445.828125 437.042969 447.546875 437.507812 C 449.59375 438.0625 451.6875 438.617188 453.839844 439.171875 C 454.109375 439.238281 454.382812 439.269531 454.644531 439.269531 C 456.082031 439.269531 457.398438 438.300781 457.773438 436.84375 C 458.214844 435.113281 457.175781 433.351562 455.445312 432.90625 " fill-opacity="1" fill-rule="nonzero"/></svg>